# xmcd
#
# Track frame offsets:
#	150
#	11809
#	22529
#	34220
#	46050
#	55467
#	69201
#	81926
#	94633
#	105694
#	126228
#	135915
#	148147
#	157415
#	168180
#	178347
#	189228
#	204002
#	214844
#	226257
#	237568
#	249812
#	259472
#	272467
#	284930
#
# Disc length: 3942 seconds
# Revision: 0
# Processed by: cddbd v1.5.2PL0 Copyright (c) Steve Scherf et al.
# Submitted via: dBpowerAMP V12.0
#
DISCID=630f6419
DTITLE=Various Artist - 75 Pumpin' Piano Greats
DYEAR=2009
DGENRE=Rhythm and Blues
TTITLE0=Tennessee Ernie Ford - Shot Gun Boogie
TTITLE1=Chuck Miller - House Of Blue Lights
TTITLE2=Jerry Lee Lewis - Drinkin Wine Spodee-Odee
TTITLE3=Roy Hall - Don't Stop Now
TTITLE4=Janis Martin featuring Floyd Cramer - Lets Elope Baby
TTITLE5=Moon Mullican - I'll Sail My Ship Alone
TTITLE6=Jackie Brenston and His Delta Cats featuring Ike Turner - Rocket 88
TTITLE7=Amos Milburn - Chicken Shack Boogie
TTITLE8=Rosco Gordon - T Model Boogie
TTITLE9=Huey ''Piano'' Smith and The Clowns - The Rockin' Pneumonia And The Boogie Woogie Flu (Parts 1 &2)
TTITLE10=Little Richard - Long Tall Sally
TTITLE11=Chuck Berry featuring Johnnie Johnson - You Can't Catch Me
TTITLE12=Dick Lory featuring Owen Bradley - Ballroom Baby
TTITLE13=Piano Red - Wildfire
TTITLE14=Gunter Lee Carr (a.k.a. Cecil Gant) - We're Gonna Rock
TTITLE15=Camille Howard - Fireball Boogie
TTITLE16=Professor Longhair and His Blues Scholars - Ball The Wall
TTITLE17=Fats Domino - All By Myself
TTITLE18=Moon Mullican - I'm Mad At You
TTITLE19=Champion Jack Dupree - Bad Whiskey and Wild Women
TTITLE20=Ray Charles - It Should've Been Me
TTITLE21=Lloyd Glenn - Old Time Shuffle
TTITLE22=Ella Mae Morse with Freddie Slack - Pigfoot Pete
TTITLE23=Hardrock Gunter featuring Huel Murphy - Birmingham Bounce
TTITLE24=Merrill E. Moore - Fly Right Boogie
EXTD=
EXTT0=
EXTT1=
EXTT2=
EXTT3=
EXTT4=
EXTT5=
EXTT6=
EXTT7=
EXTT8=
EXTT9=
EXTT10=
EXTT11=
EXTT12=
EXTT13=
EXTT14=
EXTT15=
EXTT16=
EXTT17=
EXTT18=
EXTT19=
EXTT20=
EXTT21=
EXTT22=
EXTT23=
EXTT24=
PLAYORDER=
